<?xml version="1.0" encoding="UTF-8"?>
<svg width="24" height="24" viewBox="0 0 24 24" fill="none" xmlns="http://www.w3.org/2000/svg">
  <path d="M11.93.004c-.951.007-1.861.083-2.66.223-2.357.413-2.784 1.276-2.784 2.87v2.103h5.568v.702H4.237c-1.606 0-3.01.968-3.45 2.812-.508 2.123-.53 3.448 0 5.668.392 1.65 1.33 2.813 2.936 2.813h1.9v-2.534c0-1.83 1.583-3.442 3.45-3.442h5.564c1.534 0 2.784-1.265 2.784-2.81V3.097c0-1.5-1.264-2.627-2.784-2.87C13.723.06 12.881-.003 11.93.004zm-3.002 1.692c.576 0 1.045.477 1.045 1.063 0 .584-.469 1.058-1.045 1.058-.578 0-1.045-.474-1.045-1.058 0-.586.468-1.063 1.045-1.063z" fill="#3776AB"/>
  <path d="M19.771 6.902v2.534c0 1.832-1.554 3.442-3.45 3.442h-5.564c-1.511 0-2.784 1.293-2.784 2.81v5.262c0 1.5 1.304 2.382 2.784 2.812 1.774.515 3.476.607 5.564 0 1.389-.403 2.784-1.213 2.784-2.812v-2.103h-5.564v-.702h8.348c1.606 0 2.204-1.121 2.784-2.813.599-1.743.574-3.42 0-5.668-.414-1.623-1.206-2.812-2.784-2.812h-2.118zm-3.128 13.798c.577 0 1.045.474 1.045 1.058 0 .586-.468 1.063-1.045 1.063-.576 0-1.045-.477-1.045-1.063 0-.584.469-1.058 1.045-1.058z" fill="#3776AB"/>
</svg> 